<svg width="15" height="13" viewBox="0 0 15 13" fill="none" xmlns="http://www.w3.org/2000/svg">
<path d="M13.7217 0.110362C13.7217 0.110362 15.1092 -0.430702 14.9931 0.883208C14.9549 1.42427 14.6081 3.31817 14.3381 5.36636L13.4131 11.4341C13.4131 11.4341 13.336 12.323 12.6421 12.4777C11.9485 12.632 10.9078 11.9366 10.715 11.782C10.5607 11.6659 7.82428 9.92665 6.86072 9.07666C6.59073 8.84452 6.28216 8.38096 6.89929 7.83989L10.946 3.97495C11.4085 3.51138 11.871 2.42926 9.94389 3.74317L4.54754 7.41454C4.54754 7.41454 3.93076 7.80132 2.77471 7.45347L0.26903 6.68027C0.26903 6.68027 -0.655957 6.10063 0.924377 5.521C4.77897 3.7046 9.51997 1.84962 13.721 0.110362H13.7217Z" fill="#5A6BFF"/>
</svg>
