<svg width="15" height="13" viewBox="0 0 15 13" fill="none" xmlns="http://www.w3.org/2000/svg">
<path d="M15 1.44644C14.4484 1.69086 13.8558 1.85602 13.2328 1.93067C13.8756 1.54605 14.3565 0.94071 14.5858 0.227595C13.9819 0.586304 13.3209 0.838796 12.6317 0.974094C12.1682 0.479202 11.5543 0.151179 10.8852 0.0409533C10.2162 -0.0692723 9.52948 0.0444661 8.93172 0.36451C8.33395 0.684554 7.85857 1.193 7.57938 1.8109C7.30018 2.42881 7.2328 3.1216 7.38769 3.78172C6.16402 3.72028 4.96694 3.40223 3.87415 2.84821C2.78135 2.29418 1.81726 1.51657 1.04444 0.565832C0.78019 1.02166 0.628248 1.55015 0.628248 2.113C0.627953 2.61969 0.75273 3.11862 0.991508 3.56552C1.23029 4.01242 1.57568 4.39348 1.99705 4.67488C1.50837 4.65933 1.03048 4.52729 0.603145 4.28974V4.32937C0.603095 5.04003 0.848916 5.72881 1.2989 6.27886C1.74888 6.8289 2.3753 7.20632 3.07188 7.34708C2.61855 7.46977 2.14327 7.48784 1.68193 7.39993C1.87847 8.01141 2.26129 8.54612 2.77682 8.92921C3.29235 9.3123 3.91477 9.5246 4.55695 9.53637C3.46682 10.3921 2.12051 10.8563 0.734608 10.8543C0.489109 10.8544 0.243819 10.84 0 10.8114C1.40677 11.7159 3.04435 12.1959 4.71682 12.194C10.3783 12.194 13.4733 7.50497 13.4733 3.4382C13.4733 3.30608 13.47 3.17263 13.4641 3.04051C14.0661 2.60514 14.5857 2.06603 14.9987 1.44842L15 1.44644V1.44644Z" fill="#32B5FF"/>
</svg>
