<svg width="15" height="11" viewBox="0 0 15 11" fill="none" xmlns="http://www.w3.org/2000/svg">
<path d="M7.54828 0H7.63173C8.4024 0.00281268 12.3073 0.0309396 13.3602 0.314082C13.6785 0.400496 13.9685 0.568932 14.2013 0.802558C14.4342 1.03618 14.6016 1.32682 14.6869 1.64542C14.7815 2.00169 14.8481 2.47328 14.8931 2.95987L14.9025 3.05738L14.9231 3.30114L14.9306 3.39865C14.9916 4.25558 14.9991 5.05813 15 5.23345V5.30377C14.9991 5.48566 14.9906 6.34258 14.9231 7.23514L14.9156 7.33358L14.9072 7.43109C14.8603 7.96737 14.7909 8.49991 14.6869 8.89181C14.6018 9.21053 14.4345 9.5013 14.2017 9.73497C13.9688 9.96864 13.6786 10.137 13.3602 10.2231C12.2726 10.5157 8.13895 10.5363 7.5661 10.5372H7.43296C7.14326 10.5372 5.94506 10.5316 4.68873 10.4885L4.52935 10.4828L4.44778 10.4791L4.28746 10.4725L4.12713 10.466C3.08644 10.42 2.09544 10.346 1.63885 10.2222C1.32054 10.1361 1.03044 9.96792 0.797604 9.73443C0.56477 9.50094 0.397381 9.21036 0.312207 8.89181C0.208138 8.50084 0.138759 7.96737 0.0918807 7.43109L0.0843803 7.33265L0.0768798 7.23514C0.030609 6.59985 0.00496894 5.96322 0 5.32627L0 5.21095C0.00187512 5.00938 0.00937559 4.31277 0.0600038 3.54397L0.0665667 3.4474L0.0693793 3.39865L0.0768798 3.30114L0.0975061 3.05738L0.106882 2.95987C0.151884 2.47328 0.218451 2.00075 0.313145 1.64542C0.398175 1.32669 0.5655 1.03592 0.798343 0.802252C1.03119 0.568586 1.32137 0.400237 1.63979 0.314082C2.09638 0.1922 3.08738 0.117195 4.12807 0.0703168L4.28746 0.0637539L4.44872 0.0581288L4.52935 0.0553161L4.68967 0.0487532C5.58195 0.0200401 6.4746 0.00409982 7.36734 0.000937602H7.54828V0ZM6.00038 3.00956V7.52672L9.89781 5.26908L6.00038 3.00956Z" fill="#F93636"/>
</svg>
