<svg width="279" height="165" viewBox="0 0 279 165" fill="none" xmlns="http://www.w3.org/2000/svg">
<path d="M170.882 72.1705C162.101 90.0333 151.058 138.794 148.04 141.479C145.023 144.165 127.673 154.514 124.656 159.523C121.638 164.532 122.996 162.872 124.324 163.204C125.652 163.536 201.176 163.868 201.176 163.868C201.176 163.868 192.516 112.09 191.49 111.728C190.495 111.396 170.882 72.1705 170.882 72.1705Z" fill="#92E5FF"/>
<path d="M158.39 163.627C172.27 163.717 186.904 163.808 194.96 163.838L183.917 97.8784C178.033 86.4728 170.882 72.1705 170.882 72.1705C169.765 74.4335 168.619 77.1492 167.472 80.257C166.326 129.802 173.477 143.682 168.106 152.523C163.942 159.402 160.11 162.48 158.39 163.627Z" fill="#7EB8C9"/>
<path d="M217.198 50.6267C229.75 62.2134 257.661 73.1965 257.661 73.1965C257.661 73.1965 261.915 112.392 259.019 134.57C256.122 156.747 257.721 161.273 257.721 161.273H200.15C200.15 161.273 192.426 150.562 178.274 117.22C169.283 96.0077 170.882 72.2008 170.882 72.2008L205.943 56.4502L217.198 50.6267Z" fill="#92E5FF"/>
<path d="M200.15 161.243H257.721C257.721 161.243 256.122 156.747 259.019 134.539C261.402 116.254 258.958 86.4729 257.993 76.5157L252.743 74.2828C239.587 78.0847 232.013 97.6673 229.811 116.828C228.332 129.651 207.09 142.264 193.18 149.204C197.766 157.924 200.15 161.243 200.15 161.243Z" fill="#7EB8C9"/>
<path d="M186.059 10.4054C179.119 25.8543 187.447 40.1867 187.206 39.5832C186.964 38.9797 197.706 13.4831 197.706 13.4831L186.059 10.4054Z" fill="#1F4F93"/>
<path d="M212.34 21.811L221.151 53.976C221.392 54.8812 221.181 55.8468 220.608 56.571C218.556 59.1055 215.599 64.3557 209.685 66.0153C208.538 66.3472 207.12 66.4377 205.974 66.4377C204.767 66.4377 203.711 65.5929 203.499 64.4161L197.615 33.9106L212.34 21.811Z" fill="#FFC092"/>
<path d="M210.65 24.5267L207.422 25.8544L197.525 33.9409L202.835 60.9764C211.857 55.3641 213.185 51.5622 210.65 24.5267Z" fill="#FD994F"/>
<path d="M212.008 36.0529C210.047 46.6438 202.141 53.795 194.326 52.0449C186.512 50.2948 182.77 43.4454 183.705 29.7165C184.43 18.9445 189.74 7.23718 197.555 8.98725C205.37 10.7373 213.969 25.462 212.008 36.0529Z" fill="#FFC092"/>
<path d="M257.661 73.1665C269.308 75.7916 271.48 99.4477 275.252 124.401C275.675 127.268 277.938 151.588 277.938 151.588C277.938 151.588 278.149 156.053 273.713 158.256C269.911 160.157 268.373 161.605 246.316 161.816C225.134 162.028 197.827 161.153 197.827 161.153C197.827 161.153 197.585 153.277 199.758 149.415C203.017 143.622 236.509 135.294 239.647 134.871C240.1 128.626 236.57 106.056 241.428 90.7577C244.777 80.2272 248.368 74.7054 252.863 73.2872C254.342 72.8045 255.941 72.8045 257.661 73.1665Z" fill="#92E5FF"/>
<path d="M209.806 161.665C220.246 161.816 234.578 161.967 246.316 161.846C268.373 161.635 269.911 160.187 273.713 158.286C278.179 156.053 278.39 152.281 278.39 152.281C278.39 152.281 276.127 126.422 275.705 123.556C273.261 106.84 270.605 87.7399 264.45 78.5068C270.243 95.4945 271.179 109.797 271.269 115.922C271.33 119.03 271.028 123.254 270.123 126.241C269.127 129.53 266.562 131.582 262.549 130.466C254.523 128.233 244.505 132.91 244.505 132.91C244.505 132.91 252.079 130.224 259.2 132.699C266.321 135.143 281.045 151.406 264.993 157.411C260.105 159.221 230.716 160.73 209.806 161.665Z" fill="#7EB8C9"/>
<path d="M201.538 150.169C201.538 150.169 204.495 145.13 210.59 145.13C216.685 145.13 216.233 155.087 215.358 158.346C214.452 161.605 210.892 161.756 210.892 161.756L197.827 161.152L201.538 150.169Z" fill="#7EB8C9"/>
<path d="M188.292 164.019H105.918C104.681 164.019 103.655 162.993 103.655 161.756V161.092C103.655 159.855 104.681 158.829 105.918 158.829H188.292C189.529 158.829 190.555 159.855 190.555 161.092V161.756C190.525 163.023 189.529 164.019 188.292 164.019Z" fill="#79ADF4"/>
<path d="M199.879 150.773C187.115 146.156 183.766 147.906 180.869 147.061C173.748 144.979 171.968 146.76 167.351 159.402C166.446 161.907 169.132 162.088 171.817 162.088C174.503 162.088 177.761 156.898 178.787 156.294C179.813 155.691 182.649 155.389 182.649 155.389C182.649 155.389 181.744 155.389 180.417 158.075C179.089 160.76 177.46 161.786 179.511 161.786C181.563 161.786 181.895 158.376 185.757 159.101C189.62 159.855 188.141 161.786 197.797 161.635C207.452 161.484 214.724 161.635 214.573 155.842C214.422 150.35 215.026 147.604 209.806 146.639C205.823 145.885 199.879 150.773 199.879 150.773Z" fill="#FFC092"/>
<path d="M200.06 150.772C208.599 149.807 206.094 160.458 205.189 161.333C204.284 162.238 209.956 161.635 209.956 161.635C209.956 161.635 212.612 157.38 210.379 152.462C208.146 147.544 203.711 147.333 203.711 147.333L199.909 149.415L200.06 150.772Z" fill="#CD855C"/>
<path d="M203.958 151.815C206.615 152.037 208.858 151.153 208.967 149.841C209.077 148.529 207.012 147.286 204.355 147.064C201.698 146.842 199.455 147.725 199.346 149.037C199.236 150.349 201.301 151.593 203.958 151.815Z" fill="#1F4F93"/>
<path d="M203.826 150.972C206.201 151.17 208.206 150.375 208.304 149.196C208.403 148.017 206.557 146.9 204.183 146.702C201.808 146.504 199.803 147.299 199.705 148.478C199.606 149.657 201.451 150.773 203.826 150.972Z" fill="#6392D5"/>
<path d="M203.606 149.919C205.316 150.061 206.76 149.491 206.831 148.644C206.902 147.797 205.573 146.995 203.862 146.852C202.152 146.709 200.708 147.279 200.637 148.126C200.566 148.973 201.895 149.776 203.606 149.919Z" fill="#F9CBA9"/>
<path d="M102.872 147.725H19.8945C15.5193 147.725 11.7778 144.557 10.9933 140.212L0.160953 80.4682C-0.864948 74.8257 3.4197 69.6359 9.06215 69.6359H92.0696C96.4448 69.6359 100.186 72.8041 100.971 77.1491L111.803 136.893C112.799 142.535 108.544 147.725 102.872 147.725Z" fill="#79ADF4"/>
<path d="M106.763 137.103L95.7195 78.5967C94.9048 74.3423 91.1029 71.2344 86.6372 71.2344H2.27196C0.491716 73.2862 -0.383317 76.0923 0.159807 79.0493L11.3542 140.06C12.1689 144.496 16.0311 147.724 20.5571 147.724H97.6506C103.444 147.724 107.789 142.625 106.763 137.103Z" fill="#C4DEFF"/>
<path d="M86.7579 155.721H71.0073C68.2011 155.721 65.908 153.217 65.908 150.139V121.323C65.908 116.405 62.2871 112.422 57.8215 112.422H49.5841C45.1184 112.422 41.4976 116.405 41.4976 121.323V153.579C41.4976 159.101 45.571 163.566 50.61 163.536L93.6073 163.234C93.5771 159.07 90.5296 155.721 86.7579 155.721Z" fill="#79ADF4"/>
<path d="M42.1011 121.957V153.73C42.1011 158.889 46.1142 163.113 51.1833 163.506L93.1547 163.234C93.1547 162.54 89.8356 161.303 85.7622 161.303H68.7142C65.6666 161.303 63.2226 158.829 63.2226 155.811V121.957C63.2226 117.129 59.3 113.206 54.4722 113.206H50.8816C46.0236 113.206 42.1011 117.129 42.1011 121.957Z" fill="#C4DEFF"/>
<path d="M129.936 152.04C136.273 148.51 144.027 149.686 146.833 153.217C149.64 156.747 150.122 159.101 143.786 159.101C137.449 159.101 124.746 159.583 122.634 159.342C120.552 159.101 129.936 152.04 129.936 152.04Z" fill="#FFC092"/>
<path d="M139.32 149.928C146.14 148.298 150.786 152.251 156.459 156.023C161.377 159.312 162.373 162.51 156.942 159.795C148.946 155.812 144.269 155.329 144.269 155.329L139.32 149.928Z" fill="#FFC092"/>
<path d="M133.135 152.04C129.695 152.04 126.678 150.954 124.264 151.135C121.85 151.346 114.155 159.222 115.362 159.825C115.453 159.855 115.543 159.915 115.634 159.946C117.475 160.609 119.526 159.885 120.552 158.226C121.639 156.476 123.419 154.454 125.471 155.178C128.91 156.385 132.531 156.264 132.531 156.264L133.135 152.04Z" fill="#FFC092"/>
<path d="M131.113 160.519C127.583 159.101 133.225 147.363 135.096 147.363C136.967 147.363 144.027 153.006 144.027 153.006C144.027 153.006 142.368 153.941 136.755 152.07C135.337 151.587 134.161 159.583 132.531 160.519C130.872 161.454 131.113 160.519 131.113 160.519Z" fill="#FFAA6B"/>
<path d="M183.706 35.902C183.374 48.8464 187.779 51.0189 190.857 52.769C193.934 54.5191 207.211 51.6224 209.172 48.424C214.151 40.247 209.957 32.6131 211.073 32.7337C212.189 32.8544 213.215 36.0227 216.112 40.1564C216.384 40.5487 218.284 43.0833 218.375 42.2384C219.733 30.6518 225.768 27.0611 224.319 15.3538C223.263 6.72415 217.772 7.41814 217.772 7.41814C217.772 7.41814 214.241 0.176483 203.228 0.991169C195.866 1.53429 189.288 4.40078 181.684 6.36206C174.08 8.32334 190.676 25.5524 200.542 19.2462C210.409 12.9399 205.521 26.8197 207.09 27.906C208.659 28.9922 207.844 28.0568 208.538 35.1476C209.263 42.2384 200.241 46.8851 197.646 47.4886C189.378 49.4197 188.02 48.0619 186.21 44.954C184.641 42.2686 183.706 35.902 183.706 35.902Z" fill="#1F4F93"/>
<path d="M217.892 31.8891C216.957 35.1478 214.633 37.26 212.733 36.5962C210.832 35.9323 210.771 33.2771 210.982 29.5054C211.194 26.0958 214.241 24.1345 216.142 24.7983C218.043 25.4621 218.828 28.6303 217.892 31.8891Z" fill="#FFC092"/>
</svg>
