<svg width="15" height="14" viewBox="0 0 15 14" fill="none" xmlns="http://www.w3.org/2000/svg">
<path d="M7.5 13.8454C7.26841 13.8451 7.04227 13.7751 6.851 13.6446C4.01737 11.721 2.7904 10.4021 2.11363 9.57749C0.671398 7.81978 -0.0190697 6.01518 0.000400369 4.06096C0.0231155 1.82154 1.81977 0 4.00548 0C5.59481 0 6.6956 0.895265 7.33667 1.6409C7.35698 1.66428 7.38207 1.68303 7.41024 1.69588C7.43842 1.70873 7.46903 1.71538 7.5 1.71538C7.53097 1.71538 7.56158 1.70873 7.58976 1.69588C7.61794 1.68303 7.64303 1.66428 7.66333 1.6409C8.30441 0.894544 9.40519 0 10.9945 0C13.1802 0 14.9769 1.82154 14.9996 4.06132C15.0191 6.0159 14.3279 7.8205 12.8864 9.57786C12.2096 10.4025 10.9826 11.7214 8.149 13.6449C7.95769 13.7754 7.73155 13.8452 7.5 13.8454Z" fill="#FF965B"/>
</svg>
