<svg width="58" height="58" viewBox="0 0 58 58" fill="none" xmlns="http://www.w3.org/2000/svg">
<circle cx="29" cy="29" r="29" fill="#006EBE"/>
<path d="M38.7319 34.2723C40.199 32.3595 40.9959 30.0175 40.9998 27.6071V30.2856C40.9955 32.6752 40.2118 34.998 38.7677 36.9016V34.3035L38.7319 34.2723Z" fill="#CE893D"/>
<path d="M38.768 34.3034V36.9015C38.13 37.7562 37.3791 38.5207 36.5359 39.174V36.5355L36.5137 36.5087C37.3496 35.8655 38.0958 35.1132 38.7323 34.2722L38.768 34.3034Z" fill="#E6A71E"/>
<path d="M28.5 16C35.4018 16 41 21.1965 41 27.6071C40.9961 30.0176 40.1991 32.3596 38.7321 34.2724C38.0956 35.1134 37.3494 35.8656 36.5135 36.5089C35.8286 37.0471 35.0879 37.5097 34.3036 37.8883C33.4484 38.3053 32.5503 38.6273 31.625 38.8483C29.5703 39.3364 27.4297 39.3364 25.375 38.8483C24.4497 38.6273 23.5516 38.3053 22.6964 37.8883C21.9123 37.5097 21.1714 37.0471 20.4865 36.5089C19.6506 35.8656 18.9044 35.1134 18.2679 34.2724C16.8009 32.3596 16.0039 30.0176 16 27.6071C16 21.1965 21.5982 16 28.5 16V16Z" fill="#FFCB5A"/>
<path d="M36.5359 36.5357V39.1742C35.8457 39.7163 35.0989 40.1817 34.3081 40.5625L34.3037 40.5536V37.8883C35.088 37.5097 35.8287 37.0471 36.5136 36.5089L36.5359 36.5357Z" fill="#CE893D"/>
<path d="M34.3036 40.5536L34.3079 40.5625C33.4576 40.9795 32.5639 41.3013 31.6429 41.5223L31.625 41.4464V38.8483C32.5503 38.6273 33.4484 38.3053 34.3036 37.8883V40.5536Z" fill="#E6A71E"/>
<path d="M31.6429 41.5224C30.6136 41.7691 29.5585 41.8934 28.5 41.893V39.2144C29.5524 39.2163 30.6016 39.0934 31.625 38.8484V41.4465L31.6429 41.5224Z" fill="#CE893D"/>
<path d="M28.4998 39.2144V41.893C27.4413 41.8934 26.3865 41.7691 25.3569 41.5224L25.3748 41.4465V38.8484C26.3982 39.0934 27.4474 39.2163 28.4998 39.2144Z" fill="#E6A71E"/>
<path d="M25.3748 38.8483V41.4464L25.357 41.5223C24.436 41.3013 23.5422 40.9795 22.6919 40.5625L22.6963 40.5536V37.8883C23.5514 38.3053 24.4495 38.6273 25.3748 38.8483Z" fill="#CE893D"/>
<path d="M20.4866 36.5089C21.1715 37.0471 21.9124 37.5097 22.6965 37.8883V40.5536L22.6921 40.5625C21.9024 40.1802 21.1556 39.7148 20.4644 39.1742V36.5357L20.4866 36.5089Z" fill="#E6A71E"/>
<path d="M18.2677 34.2722C18.9042 35.1132 19.6503 35.8655 20.4863 36.5087L20.4641 36.5355V39.174C19.6209 38.5207 18.87 37.7562 18.2319 36.9015V34.3034L18.2677 34.2722Z" fill="#CE893D"/>
<path d="M16 27.6071C16.0039 30.0175 16.8009 32.3595 18.2679 34.2723L18.2321 34.3035V36.9016C16.788 34.998 16.0044 32.6752 16 30.2856V27.6071Z" fill="#E6A71E"/>
<path d="M38.3216 27.6073C38.3216 22.6761 33.9244 18.6787 28.5001 18.6787C23.0759 18.6787 18.6787 22.6761 18.6787 27.6073C18.6787 32.5385 23.0759 36.5359 28.5001 36.5359C33.9244 36.5359 38.3216 32.5385 38.3216 27.6073Z" fill="#E6A71E"/>
<path d="M34.6357 32.8436L34.0254 32.1927C34.547 31.7066 34.9891 31.1413 35.3348 30.5177L36.1169 30.9471C35.7265 31.6536 35.2265 32.2938 34.6357 32.8436Z" fill="#FFCB5A"/>
<path d="M28.5002 35.1965C23.823 35.1965 20.0181 31.7921 20.0181 27.6072C20.0181 23.4224 23.823 20.0179 28.5002 20.0179C33.1775 20.0179 36.9824 23.4224 36.9824 27.6072H36.0895C36.0895 23.9148 32.685 20.9108 28.5002 20.9108C24.3154 20.9108 20.9109 23.9148 20.9109 27.6072C20.9109 31.2996 24.3154 34.3037 28.5002 34.3037C29.9895 34.3109 31.4528 33.9159 32.7358 33.1599L33.1932 33.9274C31.7717 34.7653 30.1503 35.2039 28.5002 35.1965Z" fill="#FFCB5A"/>
</svg>
