<svg width="14" height="15" viewBox="0 0 14 15" fill="none" xmlns="http://www.w3.org/2000/svg">
<path d="M11.5457 10.3823C11.2347 10.3822 10.927 10.4451 10.641 10.5673C10.355 10.6894 10.0968 10.8683 9.88187 11.093L4.54266 8.08897C4.64608 7.70059 4.64608 7.2919 4.54266 6.90352L9.88187 3.89949C10.2707 4.30258 10.7931 4.55009 11.3513 4.59564C11.9094 4.64119 12.4651 4.48167 12.9141 4.14695C13.3631 3.81223 13.6747 3.32529 13.7904 2.77734C13.9062 2.2294 13.8182 1.65805 13.5429 1.17033C13.2676 0.682613 12.824 0.311993 12.2951 0.127902C11.7661 -0.0561896 11.1882 -0.0411202 10.6696 0.170287C10.151 0.381693 9.72731 0.774932 9.47783 1.27633C9.22835 1.77773 9.17024 2.35289 9.31439 2.89406L3.97518 5.89809C3.65626 5.56555 3.24513 5.33605 2.79469 5.23909C2.34425 5.14214 1.87511 5.18217 1.44761 5.35404C1.02011 5.52591 0.653812 5.82175 0.395834 6.20351C0.137856 6.58527 0 7.03549 0 7.49624C0 7.957 0.137856 8.40722 0.395834 8.78898C0.653812 9.17074 1.02011 9.46658 1.44761 9.63845C1.87511 9.81032 2.34425 9.85035 2.79469 9.7534C3.24513 9.65644 3.65626 9.42693 3.97518 9.0944L9.31439 12.0984C9.1906 12.5645 9.21584 13.0576 9.38656 13.5086C9.55728 13.9596 9.86492 14.3458 10.2663 14.613C10.6677 14.8802 11.1427 15.0151 11.6246 14.9987C12.1065 14.9822 12.5712 14.8153 12.9535 14.5213C13.3357 14.2273 13.6163 13.821 13.7559 13.3595C13.8955 12.8979 13.887 12.4042 13.7317 11.9477C13.5765 11.4911 13.2821 11.0947 12.8901 10.814C12.498 10.5332 12.0279 10.3823 11.5457 10.3823Z" fill="#0177FB"/>
</svg>
