<svg width="49" height="49" viewBox="0 0 49 49" fill="none" xmlns="http://www.w3.org/2000/svg">
<rect width="49" height="49" rx="10" fill="url(#paint0_linear_18)"/>
<path d="M24.5 12C17.5959 12 12 17.5964 12 24.5C12 31.4036 17.5959 37 24.5 37C31.4041 37 37 31.403 37 24.5C37 17.597 31.4036 12 24.5 12ZM25.2567 30.0681V31.5151C25.2567 31.7409 25.081 31.9051 24.8547 31.9051H23.8902C23.6639 31.9051 23.4817 31.7409 23.4817 31.5151V30.1954C22.5939 30.1552 21.6985 29.9659 21.0207 29.708C20.6536 29.5688 20.449 29.1755 20.5464 28.7947L20.7036 28.1822C20.7585 27.9673 20.9022 27.7878 21.0985 27.6871C21.2949 27.5849 21.5255 27.5745 21.7317 27.6534C22.3774 27.9031 23.1401 28.0848 23.9544 28.0848C24.9912 28.0848 25.7011 27.6844 25.7011 26.9566C25.7011 26.2652 25.119 25.8284 23.7722 25.3731C21.8253 24.7181 20.492 23.8086 20.492 22.0434C20.492 20.4425 21.6251 19.187 23.5622 18.8046V17.4849C23.5622 17.2591 23.7553 17.0568 23.9816 17.0568H24.9461C25.1724 17.0568 25.3383 17.2591 25.3383 17.4849V18.6767C26.1852 18.7132 26.7967 18.8389 27.308 19.0053C27.6948 19.1315 27.9232 19.5368 27.8215 19.9317L27.6833 20.48C27.6295 20.6889 27.4913 20.8662 27.302 20.9685C27.1127 21.0708 26.8891 21.0893 26.6846 21.0191C26.22 20.8597 25.6141 20.715 24.846 20.715C23.6634 20.715 23.281 21.2247 23.281 21.7344C23.281 22.335 23.9179 22.7169 25.4645 23.2994C27.6295 24.0637 28.4993 25.0646 28.4993 26.7015C28.4988 28.3209 27.3548 29.7048 25.2567 30.0681Z" fill="#F4F4F7"/>
<defs>
<linearGradient id="paint0_linear_18" x1="2.45" y1="9.24379e-07" x2="45.08" y2="49" gradientUnits="userSpaceOnUse">
<stop stop-color="#37AEF4"/>
<stop offset="1" stop-color="#1588CB"/>
</linearGradient>
</defs>
</svg>
