<svg width="50" height="50" viewBox="0 0 50 50" fill="none" xmlns="http://www.w3.org/2000/svg">
<rect width="50" height="49.9997" rx="10" fill="#FF4387"/>
<path d="M32.0745 17.9255C28.1734 14.0248 21.8266 14.0248 17.9255 17.9255C14.0248 21.8262 14.0248 28.1732 17.9255 32.074C19.8761 34.0244 22.4381 34.9997 25 34.9997C27.5619 34.9997 30.1239 34.0244 32.0745 32.074C35.9752 28.1734 35.9752 21.8265 32.0745 17.9255ZM29.5729 21.5191C29.5729 21.8797 29.2805 22.1718 28.9203 22.1718C28.56 22.1718 28.2677 21.8797 28.2677 21.5191V20.8619H22.4613L25.5052 24.5843C25.7019 24.8245 25.7019 25.1693 25.5052 25.4095L22.4613 29.1284H28.2677V28.4805C28.2677 28.12 28.56 27.8278 28.9203 27.8278C29.2805 27.8278 29.5729 28.12 29.5729 28.4805V29.7857C29.5729 30.1462 29.276 30.4337 28.9157 30.4337H21.0843C20.8323 30.4337 20.6025 30.2907 20.4945 30.0629C20.3866 29.835 20.4193 29.5663 20.579 29.3713L24.1566 24.9992L20.5791 20.6272C20.4193 20.4322 20.3866 20.16 20.4945 19.932C20.6024 19.7043 20.8324 19.5567 21.0843 19.5567H28.9157C29.276 19.5567 29.5729 19.8534 29.5729 20.2139V21.5191H29.5729Z" fill="#F4F4F7"/>
</svg>
